<svg xmlns="http://www.w3.org/2000/svg">
  <symbol viewBox="0 0 71.5 78.5" id="logIn">
    <path fill-rule="evenodd"  stroke="rgb(0, 0, 0)" stroke-width="5px" stroke-linecap="butt" stroke-linejoin="miter" fill="none"
          d="M34.000,5.500 C43.113,5.500 50.500,12.887 50.500,22.000 C50.500,31.113 43.113,38.500 34.000,38.500 C24.887,38.500 17.500,31.113 17.500,22.000 C17.500,12.887 24.887,5.500 34.000,5.500 Z"/>
    <path fill-rule="evenodd"  stroke="rgb(0, 0, 0)" stroke-width="5px" stroke-linecap="butt" stroke-linejoin="miter" fill="none"
          d="M28.500,39.500 C28.500,39.500 28.368,51.091 20.500,49.500 C12.632,47.909 11.620,53.709 10.500,56.500 C9.380,59.291 5.500,72.500 5.500,72.500 "/>
    <path fill-rule="evenodd"  stroke="rgb(0, 0, 0)" stroke-width="5px" stroke-linecap="butt" stroke-linejoin="miter" fill="none"
          d="M40.500,39.500 C40.500,39.500 40.632,51.091 48.500,49.500 C56.368,47.909 57.380,53.709 58.500,56.500 C59.620,59.291 63.500,72.500 63.500,72.500 "/>
    <path fill-rule="evenodd"  stroke="rgb(0, 0, 0)" stroke-width="5px" stroke-linecap="butt" stroke-linejoin="miter" fill="none"
          d="M21.500,51.500 C21.500,51.500 32.587,75.068 47.500,51.500 "/>
  </symbol>
  <symbol viewBox="0 0 357 205" id="logo">
    <path fill-rule="evenodd" stroke="rgb(0, 0, 0)" stroke-width="10px"
          stroke-linecap="butt" stroke-linejoin="miter" fill="none"
          d="M341.000,188.000 C339.018,195.035 317.090,171.945 296.000,172.000 C290.994,172.013 285.214,173.000 280.000,173.000 L40.000,173.000 C23.431,173.000 10.000,159.569 10.000,143.000 L10.000,83.000 C10.000,67.959 21.070,55.505 35.506,53.336 C41.573,80.051 65.449,100.000 94.000,100.000 C122.671,100.000 146.630,79.884 152.571,53.000 L166.428,53.000 C172.370,79.884 196.329,100.000 225.000,100.000 C253.595,100.000 277.502,79.990 283.522,53.213 C298.430,54.957 310.000,67.624 310.000,83.000 C310.000,83.000 313.641,103.565 310.000,119.709 C304.706,143.182 343.208,180.164 341.000,188.000 ZM225.000,70.000 C208.431,70.000 195.000,56.568 195.000,40.000 C195.000,23.431 208.431,10.000 225.000,10.000 C241.568,10.000 255.000,23.431 255.000,40.000 C255.000,56.568 241.568,70.000 225.000,70.000 ZM94.000,70.000 C77.431,70.000 64.000,56.568 64.000,40.000 C64.000,23.431 77.431,10.000 94.000,10.000 C110.569,10.000 124.000,23.431 124.000,40.000 C124.000,56.568 110.569,70.000 94.000,70.000 Z"/>

  </symbol>
  <symbol viewBox="0 0 106.5 126.5" id="arrow">
    <path fill-rule="evenodd"  stroke="rgb(0, 0, 0)" stroke-width="5px" stroke-linecap="butt" stroke-linejoin="miter" fill="none"
          d="M97.277,72.250 L61.402,108.125 L52.000,117.527 L42.598,108.125 L6.723,72.250 L16.125,62.848 L44.851,91.574 L44.851,5.000 L59.149,5.000 L59.149,91.574 L87.875,62.848 L97.277,72.250 Z"/>

  </symbol>
</svg>
