<svg width="29" height="29" viewBox="0 0 29 29" fill="none" xmlns="http://www.w3.org/2000/svg">
<path d="M28.7516 2.77979C28.7516 1.67522 27.8561 0.77979 26.7516 0.77979L2.24853 0.779785C1.14396 0.779785 0.248535 1.67522 0.248535 2.77979L0.248539 26.7798C0.248539 27.8844 1.14397 28.7798 2.24854 28.7798H26.7516C27.8561 28.7798 28.7516 27.8844 28.7516 26.7798V2.77979ZM24.3193 8.95229H22.0427C20.2577 8.95229 19.9121 9.78529 19.9121 11.0103V13.7088H24.1733L23.6175 17.9333H19.9121V28.7798H15.4691V17.9368H11.7531V13.7088H15.4691V10.5938C15.4691 6.97829 17.7173 5.00778 21.0023 5.00778C22.5771 5.00778 23.9274 5.12328 24.3229 5.17578V8.95229H24.3193Z" fill="#1C1C1C"/>
</svg>
