<svg width="21" height="30" viewBox="0 0 21 30" fill="none" xmlns="http://www.w3.org/2000/svg">
<path d="M20.3555 11.293C20.3555 5.85887 15.9341 1.4375 10.5 1.4375C5.0659 1.4375 0.644531 5.85887 0.644531 11.293C0.644531 16.3051 4.40547 20.4557 9.25391 21.0697V22.8477H7.21484C6.88436 22.8477 6.56741 22.9789 6.33372 23.2126C6.10003 23.4463 5.96875 23.7633 5.96875 24.0938C5.96875 24.4242 6.10003 24.7412 6.33372 24.9749C6.56741 25.2086 6.88436 25.3398 7.21484 25.3398H9.25391V27.3789C9.25391 27.7094 9.38519 28.0263 9.61888 28.26C9.85257 28.4937 10.1695 28.625 10.5 28.625C10.8305 28.625 11.1474 28.4937 11.3811 28.26C11.6148 28.0263 11.7461 27.7094 11.7461 27.3789V25.3398H13.7852C14.1156 25.3398 14.4326 25.2086 14.6663 24.9749C14.9 24.7412 15.0312 24.4242 15.0312 24.0938C15.0312 23.7633 14.9 23.4463 14.6663 23.2126C14.4326 22.9789 14.1156 22.8477 13.7852 22.8477H11.7461V21.0697C16.5945 20.4557 20.3555 16.3051 20.3555 11.293ZM3.13672 11.293C3.13672 7.23297 6.44 3.92969 10.5 3.92969C14.56 3.92969 17.8633 7.23297 17.8633 11.293C17.8633 15.353 14.56 18.6562 10.5 18.6562C6.44 18.6562 3.13672 15.353 3.13672 11.293Z" fill="#C613A9" stroke="#C613A9"/>
</svg>
