<svg width="38" height="38" viewBox="0 0 38 38" fill="none" xmlns="http://www.w3.org/2000/svg">
<path fill-rule="evenodd" clip-rule="evenodd" d="M1.99486 3.71237e-06C0.890292 3.74917e-06 4.68737e-05 0.885929 4.49984e-05 1.9905C3.47217e-05 8.04348 4.6049e-06 26.4014 4.72083e-07 36.0051C-3.25223e-09 37.1097 0.895431 37.9999 2 37.9999H14.2739L14.2977 36.1237C14.2977 35.6724 14.2739 34.1762 14.2739 32.5849C9.50017 33.4637 8.26517 31.4212 7.88517 30.3524C7.67142 29.8062 6.74518 28.1199 5.93768 27.6687C5.27268 27.3125 4.32268 26.4337 5.91393 26.41C7.41018 26.3862 8.47892 27.7874 8.83517 28.3574C10.5452 31.2312 13.2764 30.4237 14.3689 29.9249C14.5352 28.6899 15.0339 27.8587 15.5802 27.3837C11.3527 26.9087 6.93518 25.27 6.93518 18.0025C6.93518 15.9362 7.67142 14.2262 8.88267 12.8962C8.69267 12.4212 8.02767 10.4737 9.07267 7.86124C9.07267 7.86124 10.6639 7.36249 14.2977 9.80873C15.8177 9.38123 17.4327 9.16749 19.0477 9.16749C20.6627 9.16749 22.2777 9.38123 23.7976 9.80873C27.4314 7.33874 29.0226 7.86124 29.0226 7.86124C30.0676 10.4737 29.4026 12.4212 29.2126 12.8962C30.4239 14.2262 31.1601 15.9125 31.1601 18.0025C31.1601 25.2937 26.7189 26.9087 22.4914 27.3837C23.1801 27.9775 23.7739 29.1174 23.7739 30.8987C23.7739 33.4399 23.7501 35.4824 23.7501 36.1237C23.7501 36.6224 23.7739 37.9999 23.7739 37.9999L36 37.9999C37.1045 37.9999 37.9999 37.1045 38 35.9999L38 2.00001C38 0.895436 37.1141 1.1999e-07 36.0095 2.65175e-07C29.9565 1.06078e-06 11.5986 3.39241e-06 1.99486 3.71237e-06Z" fill="#1C1C1C"/>
</svg>
