<svg width="29" height="30" viewBox="0 0 29 30" fill="none" xmlns="http://www.w3.org/2000/svg">
<path d="M24.7094 25.241H20.4126V18.5117C20.4126 16.9071 20.3839 14.8414 18.1778 14.8414C15.9398 14.8414 15.5973 16.5898 15.5973 18.3949V25.2405H11.3006V11.4025H15.4255V13.2936H15.4832C15.8961 12.5878 16.4926 12.0071 17.2093 11.6135C17.926 11.2198 18.7361 11.0279 19.5532 11.0583C23.9083 11.0583 24.7113 13.9229 24.7113 17.6496L24.7094 25.241ZM6.45213 9.51106C5.07497 9.51129 3.95835 8.39502 3.95813 7.01786C3.9579 5.6407 5.07406 4.52408 6.45122 4.52386C7.82838 4.52352 8.94499 5.63979 8.94522 7.01695C8.94534 7.67829 8.68275 8.31259 8.2152 8.78033C7.74766 9.24806 7.11347 9.51091 6.45213 9.51106ZM8.60062 25.2411H4.29921V11.4025H8.6005L8.60062 25.2411ZM29.0001 2.53317C29.0001 1.42865 28.1047 0.533241 27.0002 0.533168L2.00021 0.531505C0.895586 0.531432 7.5902e-05 1.42688 7.29187e-05 2.5315L5.4015e-06 27.531C2.41834e-06 28.6356 0.895434 29.531 2.00001 29.531H27.0001C28.1046 29.531 29.0001 28.6356 29.0001 27.531V2.53317Z" fill="#1C1C1C"/>
</svg>
