<svg
 xmlns="http://www.w3.org/2000/svg"
 xmlns:xlink="http://www.w3.org/1999/xlink"
 width="71.5px" height="78.5px">
<rect  x="373" y="274" width="64" height="71" fill="white" />
  <path fill-rule="evenodd"  stroke="rgb(0, 0, 0)" stroke-width="5px" stroke-linecap="butt" stroke-linejoin="miter" fill="none"
        d="M34.000,5.500 C43.113,5.500 50.500,12.887 50.500,22.000 C50.500,31.113 43.113,38.500 34.000,38.500 C24.887,38.500 17.500,31.113 17.500,22.000 C17.500,12.887 24.887,5.500 34.000,5.500 Z"/>
  <path fill-rule="evenodd"  stroke="rgb(0, 0, 0)" stroke-width="5px" stroke-linecap="butt" stroke-linejoin="miter" fill="none"
        d="M28.500,39.500 C28.500,39.500 28.368,51.091 20.500,49.500 C12.632,47.909 11.620,53.709 10.500,56.500 C9.380,59.291 5.500,72.500 5.500,72.500 "/>
  <path fill-rule="evenodd"  stroke="rgb(0, 0, 0)" stroke-width="5px" stroke-linecap="butt" stroke-linejoin="miter" fill="none"
        d="M40.500,39.500 C40.500,39.500 40.632,51.091 48.500,49.500 C56.368,47.909 57.380,53.709 58.500,56.500 C59.620,59.291 63.500,72.500 63.500,72.500 "/>
  <path fill-rule="evenodd"  stroke="rgb(0, 0, 0)" stroke-width="5px" stroke-linecap="butt" stroke-linejoin="miter" fill="none"
        d="M21.500,51.500 C21.500,51.500 32.587,75.068 47.500,51.500 "/>

</svg>