<svg width="81" height="81" viewBox="0 0 81 81" fill="none" xmlns="http://www.w3.org/2000/svg">
<path d="M77.1436 41.4311L77.0809 42.1684L70.7438 41.6294L70.4116 45.5353L69.7739 45.4811L70.1688 40.8378L77.1436 41.4311Z" fill="black"/>
<path d="M68.9369 48.26C69.075 47.7725 69.3085 47.364 69.6374 47.0345C69.9727 46.7068 70.3678 46.4861 70.8227 46.3725C71.2775 46.2588 71.7519 46.2719 72.2458 46.4118C72.7397 46.5517 73.1505 46.7893 73.4782 47.1246C73.8059 47.4599 74.0234 47.8541 74.1306 48.3072C74.2379 48.7602 74.2225 49.2305 74.0844 49.718C73.9463 50.2055 73.7128 50.614 73.3839 50.9435C73.055 51.273 72.664 51.4913 72.211 51.5986C71.7561 51.7123 71.2818 51.6992 70.7878 51.5593C70.2939 51.4194 69.8831 51.1818 69.5555 50.8465C69.226 50.5175 69.0044 50.1257 68.8907 49.6708C68.7834 49.2177 68.7988 48.7475 68.9369 48.26ZM69.5431 48.4317C69.4413 48.7909 69.4307 49.1343 69.5111 49.462C69.5961 49.7978 69.7666 50.0887 70.0227 50.3344C70.2787 50.5802 70.5992 50.7575 70.9841 50.8665C71.3689 50.9755 71.7348 50.9926 72.0817 50.9176C72.4286 50.8426 72.7231 50.6835 72.9652 50.4403C73.2119 50.2053 73.3861 49.9082 73.4879 49.549C73.5896 49.1898 73.598 48.8423 73.513 48.5064C73.4325 48.1787 73.2652 47.8888 73.011 47.6367C72.7549 47.3909 72.4345 47.2135 72.0496 47.1045C71.6648 46.9955 71.2989 46.9785 70.952 47.0535C70.6033 47.1349 70.3056 47.293 70.0588 47.528C69.8167 47.7713 69.6448 48.0725 69.5431 48.4317Z" fill="black"/>
<path d="M70.1902 58.641L66.1043 56.4846C65.3143 56.0676 64.8333 55.565 64.6613 54.9767C64.4803 54.3912 64.5952 53.7093 65.006 52.9311C65.2331 52.5007 65.5143 52.1251 65.8493 51.8045C66.1754 51.4866 66.5143 51.2659 66.8659 51.1424L67.1754 51.7128C66.8567 51.8311 66.5573 52.0198 66.2773 52.2791C65.9941 52.5442 65.7592 52.8537 65.5725 53.2074C65.2613 53.797 65.1712 54.3035 65.302 54.7269C65.427 55.1471 65.7784 55.5097 66.3561 55.8146L66.9487 56.1274C66.7566 55.7772 66.6679 55.4025 66.6826 55.0032C66.6943 54.6098 66.8012 54.2215 67.0035 53.8383C67.2337 53.402 67.5381 53.0538 67.9166 52.7937C68.2979 52.5427 68.7139 52.4042 69.1648 52.3783C69.6185 52.3614 70.0634 52.4681 70.4997 52.6984C70.936 52.9287 71.2723 53.2343 71.5084 53.6152C71.7415 54.0021 71.859 54.4221 71.861 54.8755C71.8629 55.3288 71.7472 55.7766 71.5138 56.2187C71.3053 56.6138 71.0375 56.9285 70.7103 57.1628C70.3831 57.3972 70.0178 57.5323 69.6144 57.5682L70.5076 58.0396L70.1902 58.641ZM67.528 54.1943C67.3506 54.5303 67.2611 54.8713 67.2594 55.2172C67.2637 55.5662 67.3567 55.8829 67.5383 56.1672C67.7168 56.4574 67.9711 56.6896 68.3013 56.8639C68.6315 57.0381 68.9638 57.1155 69.2982 57.096C69.6354 57.0855 69.9463 56.982 70.231 56.7855C70.5184 56.598 70.7524 56.3332 70.9328 55.9913C71.1102 55.6552 71.1997 55.3142 71.2013 54.9683C71.1999 54.6283 71.1099 54.3132 70.9314 54.023C70.7497 53.7387 70.4938 53.5094 70.1637 53.3352C69.8335 53.1609 69.4998 53.079 69.1626 53.0895C68.8223 53.1059 68.5084 53.2078 68.221 53.3954C67.9363 53.5919 67.7053 53.8582 67.528 54.1943Z" fill="black"/>
<path d="M67.8248 64.582L67.3288 65.1312L62.1338 60.4396L62.6297 59.8904L67.8248 64.582Z" fill="black"/>
<path d="M61.9435 67.8023C61.4288 68.2154 60.8996 68.3922 60.356 68.3326C59.8114 68.2825 59.3096 67.9714 58.8506 67.3995L56.9416 65.0208L57.4953 64.5764L59.3605 66.9005C59.7027 67.3268 60.0701 67.5663 60.4627 67.6187C60.8553 67.6712 61.2492 67.5389 61.6443 67.2218C62.0862 66.8671 62.3308 66.4528 62.3779 65.979C62.4241 65.5146 62.2614 65.051 61.8901 64.5883L60.1625 62.4358L60.7162 61.9914L64.0086 66.0936L63.4782 66.5192L62.8711 65.7628C62.9206 66.1333 62.867 66.4926 62.7104 66.8406C62.5527 67.198 62.297 67.5185 61.9435 67.8023Z" fill="black"/>
<path d="M53.7872 69.1713C53.9259 69.1058 54.0618 69.097 54.1949 69.1447C54.3309 69.1984 54.433 69.2977 54.5013 69.4424C54.5696 69.587 54.5799 69.7259 54.5322 69.8591C54.4873 69.9982 54.3955 70.1005 54.2569 70.166C54.1182 70.2315 53.9809 70.2373 53.845 70.1836C53.7058 70.1387 53.6021 70.0439 53.5338 69.8992C53.4654 69.7545 53.4567 69.6112 53.5077 69.4692C53.5554 69.3361 53.6486 69.2368 53.7872 69.1713Z" fill="black"/>
<path d="M49.8969 75.7863L49.1746 75.947L47.7928 69.739L43.9665 70.5906L43.8274 69.9659L48.3761 68.9535L49.8969 75.7863Z" fill="black"/>
<path d="M40.9255 69.9879C41.432 69.9742 41.8915 70.0752 42.3042 70.2908C42.717 70.513 43.0455 70.8243 43.2897 71.2245C43.534 71.6247 43.663 72.0814 43.6769 72.5945C43.6908 73.1077 43.5866 73.5707 43.3643 73.9835C43.142 74.3963 42.8307 74.7215 42.4303 74.9591C42.0299 75.1966 41.5765 75.3223 41.07 75.336C40.5635 75.3496 40.104 75.2487 39.6913 75.0331C39.2787 74.8175 38.9536 74.5095 38.716 74.1091C38.4718 73.7089 38.3427 73.2522 38.3288 72.7391C38.315 72.2259 38.4192 71.7629 38.6414 71.3501C38.857 70.9375 39.1649 70.609 39.5652 70.3648C39.9656 70.1272 40.419 70.0016 40.9255 69.9879ZM40.9425 70.6177C40.5693 70.6278 40.2383 70.7201 39.9496 70.8946C39.6544 71.076 39.4277 71.3255 39.2696 71.6432C39.1114 71.961 39.0378 72.3198 39.0486 72.7196C39.0594 73.1195 39.1523 73.4737 39.3274 73.7825C39.5025 74.0912 39.7422 74.3248 40.0466 74.4833C40.3445 74.6486 40.6801 74.7263 41.0533 74.7162C41.4265 74.7061 41.7607 74.6104 42.0559 74.429C42.3446 74.2545 42.5713 74.0082 42.7362 73.6903C42.8943 73.3726 42.968 73.0138 42.9572 72.614C42.9464 72.2141 42.8534 71.8598 42.6783 71.5511C42.4966 71.2426 42.2568 71.0056 41.9589 70.8403C41.6545 70.6818 41.3157 70.6076 40.9425 70.6177Z" fill="black"/>
<path d="M31.3213 74.2892L32.1522 69.7445C32.3129 68.8657 32.648 68.256 33.1575 67.9155C33.6617 67.5671 34.3467 67.4721 35.2123 67.6303C35.6911 67.7179 36.1336 67.8733 36.5401 68.0967C36.9412 68.3124 37.2534 68.5694 37.4767 68.8677L37.0255 69.3342C36.817 69.0657 36.5471 68.8367 36.2158 68.6474C35.8779 68.4568 35.5122 68.3256 35.1187 68.2537C34.4629 68.1338 33.9527 68.1998 33.5881 68.4516C33.2248 68.697 32.9843 69.141 32.8668 69.7836L32.7463 70.4427C33.0227 70.1544 33.3535 69.9573 33.7388 69.8516C34.1176 69.7446 34.5201 69.7301 34.9463 69.808C35.4316 69.8967 35.8551 70.0826 36.2168 70.3656C36.5707 70.6539 36.8277 71.0093 36.9876 71.4316C37.1399 71.8593 37.1716 72.3158 37.0829 72.8011C36.9942 73.2863 36.8036 73.6988 36.5111 74.0384C36.212 74.3768 35.8465 74.6149 35.4147 74.7529C34.9828 74.8908 34.521 74.9148 34.0292 74.8249C33.5898 74.7445 33.2092 74.5835 32.8874 74.3417C32.5657 74.0998 32.3272 73.7919 32.1719 73.4179L31.9903 74.4114L31.3213 74.2892ZM34.7642 70.4152C34.3904 70.3468 34.0383 70.3638 33.7078 70.466C33.3762 70.5748 33.102 70.7585 32.8853 71.0171C32.662 71.2744 32.5168 71.5868 32.4497 71.954C32.3826 72.3212 32.4085 72.6615 32.5274 72.9746C32.6386 73.2931 32.8307 73.5587 33.1036 73.7712C33.3687 73.9891 33.6914 74.1328 34.0718 74.2024C34.4456 74.2707 34.7977 74.2538 35.1282 74.1515C35.4521 74.0481 35.7256 73.8677 35.9489 73.6103C36.1656 73.3517 36.3075 73.0388 36.3746 72.6716C36.4418 72.3043 36.4198 71.9614 36.3086 71.6429C36.1908 71.3232 35.9994 71.0544 35.7342 70.8365C35.4613 70.6239 35.138 70.4835 34.7642 70.4152Z" fill="black"/>
<path d="M24.955 73.8053L24.2824 73.4968L27.2003 67.134L27.8729 67.4424L24.955 73.8053Z" fill="black"/>
<path d="M20.1302 69.1451C19.5826 68.7767 19.2564 68.3241 19.1515 67.7874C19.0373 67.2526 19.1849 66.6809 19.5943 66.0725L21.2971 63.5421L21.8861 63.9385L20.2224 66.4108C19.9172 66.8644 19.798 67.2864 19.8647 67.6768C19.9315 68.0672 20.175 68.4039 20.5954 68.6867C21.0655 69.0031 21.5337 69.1133 22.0001 69.0173C22.4572 68.9231 22.8514 68.6299 23.1827 68.1377L24.7235 65.8478L25.3126 66.2442L22.376 70.6082L21.8118 70.2285L22.3534 69.4238C22.0143 69.5813 21.6554 69.6371 21.2765 69.5911C20.8884 69.5469 20.5063 69.3982 20.1302 69.1451Z" fill="black"/>
<path d="M16.3996 61.759C16.5032 61.872 16.5519 61.9992 16.5457 62.1405C16.5346 62.2863 16.4701 62.4132 16.3522 62.5213C16.2342 62.6294 16.1046 62.6804 15.9633 62.6742C15.8171 62.6726 15.6922 62.6152 15.5886 62.5022C15.485 62.3891 15.4387 62.2597 15.4498 62.1139C15.4515 61.9677 15.5113 61.8405 15.6293 61.7324C15.7472 61.6244 15.8816 61.5736 16.0323 61.5802C16.1736 61.5863 16.296 61.6459 16.3996 61.759Z" fill="black"/>
<path d="M8.93214 60.0348L8.56282 59.3935L14.0741 56.2194L12.1177 52.8225L12.6723 52.5031L14.998 56.5412L8.93214 60.0348Z" fill="black"/>
<path d="M11.7951 49.7918C11.9605 50.2707 12.0025 50.7394 11.9211 51.1977C11.8333 51.6583 11.6354 52.0653 11.3272 52.4186C11.019 52.7719 10.6223 53.0324 10.1371 53.2001C9.65196 53.3677 9.17908 53.4076 8.71851 53.3199C8.25794 53.2322 7.85414 53.0331 7.5071 52.7228C7.16006 52.4124 6.90381 52.0178 6.73835 51.5389C6.5729 51.06 6.53089 50.5914 6.61233 50.133C6.69377 49.6746 6.88967 49.2719 7.20002 48.9248C7.5082 48.5715 7.90488 48.311 8.39007 48.1434C8.87526 47.9757 9.34814 47.9358 9.80871 48.0235C10.2671 48.105 10.673 48.2998 11.0263 48.608C11.3734 48.9183 11.6296 49.3129 11.7951 49.7918ZM11.1996 49.9976C11.0777 49.6447 10.8901 49.3568 10.6367 49.134C10.3749 48.9071 10.0688 48.766 9.71817 48.7108C9.36759 48.6556 9.00326 48.6933 8.62519 48.8239C8.24712 48.9545 7.93722 49.1498 7.69549 49.4096C7.45376 49.6695 7.30312 49.9684 7.24355 50.3063C7.17551 50.6402 7.20245 50.9836 7.32436 51.3364C7.44628 51.6893 7.63813 51.9792 7.89993 52.2062C8.15325 52.429 8.45629 52.5712 8.80905 52.6327C9.15963 52.6879 9.52396 52.6502 9.90203 52.5195C10.2801 52.3889 10.59 52.1937 10.8317 51.9338C11.0713 51.6677 11.2251 51.3677 11.2931 51.0338C11.3527 50.6958 11.3215 50.3504 11.1996 49.9976Z" fill="black"/>
<path d="M4.83539 42.0096L9.42031 41.4413C10.3069 41.3314 10.9889 41.4686 11.4665 41.8527C11.9498 42.2295 12.2456 42.8545 12.3538 43.7278C12.4137 44.2108 12.3979 44.6796 12.3065 45.1343C12.2209 45.5816 12.0691 45.9564 11.8514 46.2588L11.2712 45.968C11.465 45.6887 11.6026 45.3626 11.684 44.9898C11.7646 44.6103 11.7803 44.2221 11.7311 43.8252C11.6491 43.1636 11.4333 42.6965 11.0838 42.4241C10.741 42.1509 10.2453 42.0545 9.59696 42.1348L8.93205 42.2172C9.28991 42.3946 9.57699 42.6512 9.79329 42.9872C10.0088 43.3165 10.1432 43.6962 10.1965 44.1262C10.2571 44.6158 10.2066 45.0755 10.0449 45.5053C9.87582 45.9293 9.61374 46.2809 9.25871 46.56C8.89625 46.8334 8.47022 47.0004 7.98063 47.0611C7.49105 47.1217 7.04045 47.0634 6.62884 46.886C6.2164 46.702 5.87973 46.4246 5.61882 46.0539C5.3579 45.6832 5.19669 45.2497 5.13519 44.7535C5.08025 44.3103 5.11995 43.8989 5.25431 43.5195C5.38866 43.1401 5.61101 42.8203 5.92137 42.5602L4.91904 42.6844L4.83539 42.0096ZM9.56264 44.1342C9.51589 43.7571 9.39427 43.4262 9.19776 43.1416C8.99464 42.8577 8.73728 42.6512 8.42567 42.5218C8.11324 42.3859 7.77178 42.3409 7.40128 42.3868C7.03079 42.4327 6.71395 42.5593 6.45078 42.7666C6.18018 42.9681 5.98434 43.2309 5.86328 43.5549C5.73478 43.8731 5.69431 44.2241 5.74187 44.6078C5.78861 44.9849 5.91024 45.3158 6.10674 45.6005C6.30243 45.8785 6.55649 46.0855 6.86891 46.2214C7.18052 46.3507 7.52157 46.3924 7.89207 46.3465C8.26257 46.3006 8.58312 46.1769 8.85373 45.9754C9.12351 45.7673 9.32265 45.5042 9.45115 45.1859C9.57222 44.8619 9.60938 44.5113 9.56264 44.1342Z" fill="black"/>
<path d="M3.3782 35.6882L3.47204 34.9542L10.4155 35.8419L10.3217 36.5759L3.3782 35.6882Z" fill="black"/>
<path d="M6.38666 29.6328C6.57611 29.0005 6.91154 28.5547 7.39293 28.2953C7.86984 28.0276 8.45953 27.999 9.162 28.2095L12.0836 29.0851L11.8798 29.7652L9.02525 28.9098C8.50159 28.7528 8.06323 28.7641 7.71016 28.9437C7.3571 29.1232 7.10785 29.4557 6.9624 29.941C6.79974 30.4838 6.83341 30.9637 7.06341 31.3806C7.28895 31.7892 7.6859 32.0787 8.25426 32.249L10.8981 33.0413L10.6943 33.7214L5.65566 32.2115L5.85086 31.5601L6.78004 31.8385C6.529 31.5615 6.36927 31.2352 6.30083 30.8598C6.22791 30.476 6.25653 30.067 6.38666 29.6328Z" fill="black"/>
<path d="M12.2765 23.953C12.1995 24.0856 12.0926 24.17 11.9559 24.2063C11.8135 24.2392 11.6731 24.2155 11.5347 24.1351C11.3964 24.0547 11.3091 23.9462 11.2728 23.8095C11.2308 23.6695 11.2483 23.5331 11.3253 23.4005C11.4023 23.268 11.5121 23.1852 11.6545 23.1523C11.7946 23.1103 11.9338 23.1295 12.0721 23.2099C12.2105 23.2902 12.299 23.4033 12.3377 23.5491C12.3739 23.6858 12.3535 23.8205 12.2765 23.953Z" fill="black"/>
<path d="M11.6629 16.333L12.1648 15.7893L16.8381 20.1032L19.497 17.2228L19.9673 17.6569L16.8064 21.0811L11.6629 16.333Z" fill="black"/>
<path d="M22.4395 15.8752C22.0309 16.1747 21.5956 16.3533 21.1336 16.4109C20.6676 16.4631 20.2204 16.3942 19.7917 16.2042C19.3631 16.0141 18.9971 15.7121 18.6936 15.2981C18.3901 14.8841 18.2123 14.4441 18.16 13.9782C18.1078 13.5122 18.1787 13.0676 18.3727 12.6444C18.5666 12.2212 18.868 11.8598 19.2766 11.5602C19.6852 11.2607 20.1206 11.0821 20.5825 11.0245C21.0445 10.9669 21.4871 11.0351 21.9104 11.2291C22.339 11.4191 22.705 11.7211 23.0085 12.1352C23.312 12.5492 23.4899 12.9892 23.5421 13.4551C23.5997 13.9171 23.5335 14.3624 23.3434 14.791C23.1495 15.2142 22.8481 15.5756 22.4395 15.8752ZM22.0671 15.367C22.3682 15.1463 22.5877 14.8821 22.7258 14.5742C22.8653 14.2571 22.9096 13.9229 22.8588 13.5716C22.808 13.2204 22.6643 12.8834 22.4278 12.5608C22.1913 12.2382 21.9133 11.9998 21.5936 11.8456C21.2739 11.6915 20.9439 11.6358 20.6034 11.6788C20.2643 11.7124 19.9442 11.8396 19.6431 12.0603C19.342 12.281 19.1217 12.5499 18.9823 12.8671C18.8442 13.1749 18.7979 13.5064 18.8434 13.8616C18.8942 14.2129 19.0378 14.5498 19.2743 14.8724C19.5108 15.195 19.7889 15.4334 20.1085 15.5876C20.4336 15.7378 20.7656 15.7961 21.1047 15.7625C21.4452 15.7196 21.766 15.5878 22.0671 15.367Z" fill="black"/>
<path d="M27.551 7.01481L29.4768 11.2143C29.8492 12.0263 29.9243 12.7179 29.7022 13.2892C29.489 13.8637 28.9824 14.3344 28.1825 14.7012C27.7401 14.9041 27.2884 15.0305 26.8273 15.0806C26.3751 15.134 25.9719 15.1025 25.6179 14.9862L25.72 14.3453C26.0448 14.4457 26.3971 14.4785 26.7772 14.4435C27.1633 14.4058 27.5381 14.3036 27.9017 14.1369C28.5077 13.859 28.8878 13.5123 29.042 13.0969C29.199 12.6875 29.1413 12.1859 28.869 11.5921L28.5897 10.983C28.5286 11.3777 28.3706 11.7289 28.1157 12.0365C27.8667 12.3414 27.5453 12.5841 27.1514 12.7647C26.703 12.9704 26.2495 13.061 25.7909 13.0366C25.3356 13.0034 24.9214 12.8596 24.5481 12.6054C24.1781 12.3424 23.8903 11.9866 23.6846 11.5382C23.479 11.0898 23.3986 10.6426 23.4434 10.1966C23.4944 9.7479 23.6571 9.3432 23.9318 8.98255C24.2065 8.6219 24.5711 8.33736 25.0255 8.12894C25.4316 7.94275 25.8357 7.85643 26.238 7.86998C26.6402 7.88354 27.0122 7.99899 27.3539 8.21633L26.9329 7.29827L27.551 7.01481ZM26.9525 12.1629C27.2979 12.0045 27.5766 11.7887 27.7887 11.5154C27.9979 11.2361 28.1172 10.9283 28.1464 10.5922C28.1817 10.2534 28.1215 9.91423 27.9659 9.57488C27.8103 9.23553 27.594 8.97169 27.3169 8.78337C27.0431 8.58621 26.7335 8.47883 26.3881 8.46122C26.0459 8.43478 25.6991 8.50215 25.3476 8.66333C25.0022 8.82173 24.7235 9.03756 24.5114 9.31083C24.3054 9.58132 24.1848 9.88601 24.1495 10.2249C24.1203 10.561 24.1835 10.8987 24.3391 11.2381C24.4947 11.5774 24.7094 11.8457 24.9832 12.0429C25.263 12.2372 25.574 12.3476 25.9162 12.3741C26.2616 12.3917 26.607 12.3213 26.9525 12.1629Z" fill="black"/>
<path d="M33.1281 3.7068L33.8565 3.57651L35.0891 10.4671L34.3606 10.5974L33.1281 3.7068Z" fill="black"/>
<path d="M39.7963 4.74905C40.4562 4.73886 40.9825 4.92409 41.3751 5.30474C41.7742 5.67862 41.9795 6.23218 41.9908 6.96543L42.0379 10.0151L41.328 10.026L41.282 7.04638C41.2735 6.49978 41.1304 6.08527 40.8527 5.80286C40.575 5.52045 40.1828 5.38315 39.6762 5.39098C39.1096 5.39973 38.6623 5.57665 38.3342 5.92176C38.0128 6.2601 37.8566 6.7259 37.8658 7.31916L37.9084 10.0788L37.1985 10.0898L37.1173 4.83042L37.7972 4.81992L37.8121 5.7898C38.0005 5.46686 38.2633 5.2161 38.6006 5.03754C38.9445 4.85221 39.343 4.75604 39.7963 4.74905Z" fill="black"/>
<path d="M47.216 8.67201C47.0665 8.63813 46.954 8.56137 46.8786 8.44175C46.8046 8.31562 46.7853 8.17453 46.8207 8.01849C46.856 7.86244 46.9335 7.74671 47.0531 7.67128C47.1742 7.58934 47.3096 7.56532 47.4591 7.5992C47.6086 7.63309 47.7204 7.71309 47.7943 7.83922C47.8763 7.96032 47.8996 8.09889 47.8642 8.25494C47.8288 8.41098 47.7474 8.52923 47.6198 8.60969C47.5001 8.68512 47.3656 8.70589 47.216 8.67201Z" fill="black"/>
<path d="M54.3562 5.83415L55.0242 6.15258L52.2874 11.8936L55.8259 13.5805L55.5505 14.1582L51.344 12.1529L54.3562 5.83415Z" fill="black"/>
<path d="M57.8708 15.9184C57.4633 15.6174 57.1633 15.2549 56.9709 14.831C56.7824 14.4017 56.7151 13.9541 56.7691 13.4884C56.823 13.0227 57.0024 12.5833 57.3074 12.1704C57.6124 11.7575 57.9796 11.4568 58.4089 11.2684C58.8382 11.0799 59.2837 11.0153 59.7455 11.0746C60.2073 11.1339 60.6419 11.3141 61.0495 11.6151C61.457 11.9161 61.757 12.2786 61.9495 12.7025C62.1419 13.1265 62.2085 13.5693 62.1492 14.0311C62.0952 14.4969 61.9158 14.9362 61.6108 15.3491C61.3058 15.762 60.9386 16.0627 60.5093 16.2512C60.0854 16.4436 59.6406 16.5128 59.1748 16.4589C58.713 16.3996 58.2784 16.2195 57.8708 15.9184ZM58.2451 15.4117C58.5454 15.6335 58.8631 15.7645 59.198 15.8047C59.5423 15.8435 59.8746 15.7864 60.1948 15.6334C60.515 15.4804 60.794 15.243 61.0316 14.9213C61.2693 14.5996 61.4142 14.2632 61.4663 13.9121C61.5184 13.561 61.4733 13.2294 61.331 12.9171C61.198 12.6034 60.9814 12.3356 60.6811 12.1138C60.3808 11.892 60.0585 11.7617 59.7142 11.7228C59.3793 11.6826 59.049 11.737 58.7234 11.8861C58.4032 12.0391 58.1242 12.2765 57.8866 12.5982C57.6489 12.92 57.504 13.2564 57.4519 13.6074C57.4052 13.9624 57.4483 14.2968 57.5813 14.6105C57.7236 14.9228 57.9448 15.1899 58.2451 15.4117Z" fill="black"/>
<path d="M67.9726 18.2874L64.5327 21.3714C63.8675 21.9677 63.2292 22.2445 62.6178 22.2017C62.0059 22.1683 61.4062 21.824 60.8188 21.1688C60.494 20.8064 60.2393 20.4125 60.0548 19.9869C59.8697 19.5708 59.7803 19.1765 59.7865 18.8038L60.4289 18.7114C60.4292 19.0514 60.5024 19.3976 60.6484 19.7502C60.7988 20.1078 61.0075 20.4355 61.2746 20.7333C61.7196 21.2297 62.1633 21.49 62.6058 21.5141C63.0433 21.5427 63.5053 21.339 63.9917 20.9028L64.4906 20.4556C64.0955 20.5143 63.7133 20.4675 63.344 20.3151C62.979 20.1678 62.6519 19.9327 62.3627 19.6101C62.0334 19.2428 61.8124 18.8365 61.6998 18.3913C61.5966 17.9466 61.611 17.5083 61.7432 17.0765C61.8848 16.6451 62.1392 16.2648 62.5065 15.9355C62.8739 15.6062 63.2771 15.3969 63.7163 15.3075C64.16 15.2231 64.5948 15.2587 65.0206 15.4141C65.4465 15.5695 65.8263 15.8334 66.16 16.2057C66.4582 16.5383 66.6604 16.8986 66.7667 17.2869C66.873 17.6751 66.873 18.0645 66.7667 18.4553L67.5187 17.7811L67.9726 18.2874ZM62.8785 19.2417C63.1322 19.5246 63.4209 19.7268 63.7447 19.8484C64.0736 19.9655 64.4028 19.9881 64.7325 19.9164C65.0666 19.8497 65.3726 19.6917 65.6506 19.4425C65.9286 19.1933 66.1164 18.9085 66.2142 18.588C66.3213 18.2681 66.3321 17.9406 66.2465 17.6055C66.1704 17.2708 66.0032 16.9596 65.7451 16.6717C65.4915 16.3887 65.2027 16.1865 64.8789 16.065C64.5595 15.9484 64.2327 15.9235 63.8986 15.9902C63.5689 16.0619 63.2651 16.2224 62.9871 16.4716C62.7092 16.7208 62.5166 17.0054 62.4094 17.3253C62.3067 17.6502 62.2935 17.9799 62.3696 18.3145C62.4552 18.6497 62.6248 18.9587 62.8785 19.2417Z" fill="black"/>
<path d="M72.7379 22.5523L73.0808 23.2081L66.8781 26.4524L66.5351 25.7967L72.7379 22.5523Z" fill="black"/>
<path d="M73.7518 29.2737C73.9579 29.9007 73.9377 30.4583 73.6911 30.9463C73.4529 31.4387 72.9855 31.7993 72.2888 32.0283L69.3914 32.9808L69.1697 32.3063L72.0006 31.3757C72.52 31.205 72.8731 30.945 73.0601 30.5959C73.2471 30.2467 73.2614 29.8314 73.1032 29.3501C72.9263 28.8118 72.6242 28.4374 72.1971 28.2269C71.7785 28.0206 71.2873 28.0101 70.7236 28.1954L68.1017 29.0573L67.88 28.3828L72.8769 26.7402L73.0893 27.3862L72.1678 27.6891C72.5321 27.7729 72.8497 27.9492 73.1206 28.2181C73.3998 28.4912 73.6102 28.8431 73.7518 29.2737Z" fill="black"/>
<path d="M72.1787 37.4061C72.1663 37.2532 72.2059 37.1229 72.2974 37.0152C72.3957 36.9069 72.5245 36.8463 72.684 36.8333C72.8435 36.8204 72.9771 36.8597 73.0848 36.9513C73.1992 37.0423 73.2627 37.1642 73.2751 37.3171C73.2875 37.4699 73.2446 37.6005 73.1463 37.7088C73.0553 37.8232 72.93 37.8869 72.7706 37.8998C72.6111 37.9128 72.4739 37.8704 72.3589 37.7727C72.2512 37.6811 72.1911 37.5589 72.1787 37.4061Z" fill="black"/>
</svg>
