<svg
  xmlns="http://www.w3.org/2000/svg"
  xmlns:xlink="http://www.w3.org/1999/xlink"
  width="357px" height="205px">
  <path fill-rule="evenodd" stroke="rgb(0, 0, 0)" stroke-width="10px"
        stroke-linecap="butt" stroke-linejoin="miter" fill="none"
        d="M341.000,188.000 C339.018,195.035 317.090,171.945 296.000,172.000 C290.994,172.013 285.214,173.000 280.000,173.000 L40.000,173.000 C23.431,173.000 10.000,159.569 10.000,143.000 L10.000,83.000 C10.000,67.959 21.070,55.505 35.506,53.336 C41.573,80.051 65.449,100.000 94.000,100.000 C122.671,100.000 146.630,79.884 152.571,53.000 L166.428,53.000 C172.370,79.884 196.329,100.000 225.000,100.000 C253.595,100.000 277.502,79.990 283.522,53.213 C298.430,54.957 310.000,67.624 310.000,83.000 C310.000,83.000 313.641,103.565 310.000,119.709 C304.706,143.182 343.208,180.164 341.000,188.000 ZM225.000,70.000 C208.431,70.000 195.000,56.568 195.000,40.000 C195.000,23.431 208.431,10.000 225.000,10.000 C241.568,10.000 255.000,23.431 255.000,40.000 C255.000,56.568 241.568,70.000 225.000,70.000 ZM94.000,70.000 C77.431,70.000 64.000,56.568 64.000,40.000 C64.000,23.431 77.431,10.000 94.000,10.000 C110.569,10.000 124.000,23.431 124.000,40.000 C124.000,56.568 110.569,70.000 94.000,70.000 Z"/>
</svg>