<svg width="33" height="33" viewBox="0 0 33 33" fill="none" xmlns="http://www.w3.org/2000/svg">
<path d="M25.0595 16.9124L21.6563 19.3359C21.6563 19.3359 19.9548 14.5921 18.6657 11.5499C18.1501 10.3124 16.5001 9.89992 15.7266 8.1468C14.386 5.15617 15.9845 2.57805 17.5313 4.4343C19.336 6.59992 22.0173 8.19836 22.5845 9.43586C23.461 11.4984 25.0595 16.9124 25.0595 16.9124Z" fill="#F9E218"/>
<path d="M27.7409 18.8719C27.9987 20.5219 27.7924 23.0484 26.3487 26.0391C26.3487 26.0391 23.4096 22.5328 23.0487 20.8828C23.0487 20.8828 22.2237 14.7469 21.3471 10.8281C20.9862 9.22968 19.1299 8.30155 18.6659 6.0328C17.8409 2.11405 20.3159 -0.618759 21.7596 2.01093C23.4096 5.05312 26.194 7.63124 26.5549 9.22968C27.1737 11.9625 27.4315 16.5 27.7409 18.8719Z" fill="#F9E218"/>
<path d="M23.4092 15.7781C23.4092 15.7781 23.1514 13.4578 22.2748 9.53906C21.9139 7.94063 20.0576 7.0125 19.5935 4.74375C19.2842 3.40313 19.3873 2.16563 19.7482 1.28906C18.8717 1.95937 18.1498 3.81562 18.6139 6.08437C19.0779 8.35313 20.9857 9.28125 21.2951 10.8797C21.656 12.5813 21.9654 14.3344 21.9654 14.3344L19.3873 13.3547L23.4092 15.7781Z" fill="#EBA352"/>
<path d="M26.5032 18.2532C23.1001 15.1595 19.2845 13.2517 16.8095 12.0657C13.1486 10.261 14.1282 12.736 7.88918 14.386C7.06418 14.5923 6.08449 15.211 6.85793 16.7579C7.5798 18.2532 13.4579 17.1188 14.3861 16.2423C14.3861 16.2423 16.8611 19.2845 19.3361 19.1813C19.3361 19.1813 18.9236 21.1923 19.4907 22.172C19.4907 22.172 15.9845 23.9767 14.4892 25.5751L10.3642 22.7907C10.0548 18.511 9.28136 17.222 7.1673 17.4282C5.20793 17.6345 5.41418 19.4907 5.46574 20.986C5.5173 23.7188 4.79543 24.1829 5.46574 25.2657C7.9923 29.3907 11.2407 31.9688 17.222 31.9688C19.4392 31.9688 20.8829 31.9173 22.2751 31.247C24.5439 30.061 30.2673 21.7079 26.5032 18.2532Z" fill="#F9E218"/>
<path d="M27.1734 19.0781C28.4625 22.9969 23.8734 29.4422 21.8625 30.4219C20.4703 31.0922 19.0781 31.1438 16.8094 31.1438C10.8797 31.1438 7.68281 28.6172 5.15625 24.5437C5.20781 24.75 5.31094 25.0078 5.41406 25.2141C7.99219 29.3906 11.2406 31.9688 17.2219 31.9688C19.4391 31.9688 20.8828 31.9172 22.275 31.2469C24.3891 30.1641 29.4937 22.8937 27.1734 19.0781Z" fill="#EBA352"/>
<path d="M9.59067 22.8937C9.59067 22.8937 13.4579 25.3687 14.386 25.5234L10.3125 22.7905C10.4672 18.4593 9.22974 17.0671 7.11567 17.428C6.96099 17.4796 6.8063 17.4796 6.65161 17.5312C8.76567 17.2734 9.74536 18.6655 9.59067 22.8937Z" fill="#EBA352"/>
<path d="M14.3859 16.2422C14.3859 16.2422 16.8609 19.2328 19.3359 19.1813V18.6141C16.8609 18.6656 14.3859 15.675 14.3859 15.675C13.4578 16.6031 7.57969 17.7375 6.85781 16.1906C6.75469 15.9328 6.65156 15.675 6.6 15.4688C6.54844 15.7781 6.6 16.1906 6.85781 16.7578C7.57969 18.2531 13.4578 17.1187 14.3859 16.2422Z" fill="#EBA352"/>
</svg>
