<svg width="29" height="29" viewBox="0 0 29 29" fill="none" xmlns="http://www.w3.org/2000/svg">
<path d="M23.5734 0H19.1706C18.7813 0 18.408 0.154624 18.1328 0.429856C17.8576 0.705089 17.7029 1.07838 17.7029 1.46762C17.7029 1.85686 17.8576 2.23015 18.1328 2.50539C18.408 2.78062 18.7813 2.93524 19.1706 2.93524H20.0267L18.1921 4.782C16.6557 3.58127 14.7608 2.93096 12.8109 2.93524C10.602 2.93396 8.47337 3.76285 6.84706 5.25754C5.22075 6.75222 4.21557 8.80352 4.03086 11.0046C3.84615 13.2057 4.49541 15.3959 5.84988 17.1407C7.20434 18.8855 9.16508 20.0575 11.3432 20.4244V22.0143H8.8972C8.50797 22.0143 8.13467 22.1689 7.85944 22.4442C7.58421 22.7194 7.42958 23.0927 7.42958 23.4819C7.42958 23.8712 7.58421 24.2445 7.85944 24.5197C8.13467 24.7949 8.50797 24.9496 8.8972 24.9496H11.3432V26.9064C11.3432 27.2956 11.4979 27.6689 11.7731 27.9442C12.0483 28.2194 12.4216 28.374 12.8109 28.374C13.2001 28.374 13.5734 28.2194 13.8486 27.9442C14.1239 27.6689 14.2785 27.2956 14.2785 26.9064V24.9496H16.7245C17.1138 24.9496 17.487 24.7949 17.7623 24.5197C18.0375 24.2445 18.1921 23.8712 18.1921 23.4819C18.1921 23.0927 18.0375 22.7194 17.7623 22.4442C17.487 22.1689 17.1138 22.0143 16.7245 22.0143H14.2785V20.4244C15.7188 20.1805 17.0759 19.5821 18.2273 18.683C19.3788 17.784 20.2885 16.6126 20.8745 15.2745C21.4605 13.9363 21.7043 12.4733 21.5841 11.0174C21.4638 9.56153 20.9833 8.15842 20.1857 6.93451L22.1058 5.01437V5.87049C22.1058 6.25972 22.2604 6.63302 22.5357 6.90825C22.8109 7.18348 23.1842 7.33811 23.5734 7.33811C23.9627 7.33811 24.3359 7.18348 24.6112 6.90825C24.8864 6.63302 25.041 6.25972 25.041 5.87049V1.46762C25.041 1.07838 24.8864 0.705089 24.6112 0.429856C24.3359 0.154624 23.9627 0 23.5734 0ZM12.8109 17.6115C11.6498 17.6115 10.5148 17.2672 9.54939 16.6221C8.584 15.977 7.83156 15.0602 7.38724 13.9875C6.94292 12.9148 6.82666 11.7345 7.05317 10.5957C7.27969 9.45694 7.8388 8.41091 8.6598 7.58991C9.4808 6.76891 10.5268 6.2098 11.6656 5.98329C12.8043 5.75677 13.9847 5.87303 15.0574 6.31735C16.1301 6.76167 17.0469 7.51411 17.692 8.47951C18.337 9.4449 18.6813 10.5799 18.6813 11.741C18.6813 13.2979 18.0629 14.7911 16.9619 15.892C15.861 16.993 14.3678 17.6115 12.8109 17.6115Z" fill="#2CB329"/>
</svg>
