<svg width="85" height="31" viewBox="0 0 85 31" fill="none" xmlns="http://www.w3.org/2000/svg">
<g clip-path="url(#clip0_20_424)">
<path d="M43.8839 10.2679L47.9278 10.0112C48.0201 10.6605 48.1892 11.1437 48.466 11.491C48.9119 12.0346 49.527 12.3064 50.3419 12.3064C50.9416 12.3064 51.4182 12.1705 51.7411 11.8836C52.0487 11.6571 52.2332 11.2947 52.2332 10.9172C52.2332 10.5548 52.064 10.2075 51.7719 9.981C51.4644 9.7092 50.7417 9.4374 49.6038 9.1958C47.7433 8.78811 46.4056 8.24451 45.6214 7.54992C44.8372 6.90062 44.3913 5.94933 44.422 4.93764C44.422 4.24305 44.6373 3.54846 45.0371 2.97466C45.4984 2.32537 46.1288 1.81197 46.8822 1.52508C47.6972 1.17778 48.835 0.996582 50.265 0.996582C52.0179 0.996582 53.3557 1.31368 54.2782 1.96297C55.2008 2.59717 55.7544 3.62396 55.9235 5.02824L51.9257 5.25474C51.818 4.65075 51.6028 4.21285 51.2491 3.92595C50.8954 3.63906 50.4342 3.50316 49.8345 3.50316C49.3424 3.50316 48.9734 3.60886 48.7274 3.80515C48.4967 3.98635 48.343 4.25815 48.3584 4.56015C48.3584 4.78665 48.4814 4.99804 48.6659 5.13394C48.8658 5.31514 49.3424 5.48124 50.0959 5.63224C51.9564 6.02483 53.2788 6.41743 54.0937 6.82513C54.9087 7.23282 55.493 7.73112 55.8466 8.32001C56.2156 8.92401 56.4002 9.6186 56.3848 10.3283C56.3848 11.1739 56.1388 12.0195 55.6467 12.7292C55.1393 13.4691 54.432 14.0429 53.6017 14.3902C52.7252 14.7676 51.6181 14.9639 50.2958 14.9639C47.9586 14.9639 46.3441 14.5261 45.4369 13.6352C44.5297 12.7443 43.9915 11.6269 43.8839 10.2679ZM0.968705 14.7374V1.23818H8.05717C9.36415 1.23818 10.379 1.34388 11.0709 1.57038C11.7475 1.78177 12.3471 2.21967 12.7469 2.80856C13.1928 3.45786 13.4081 4.21285 13.3927 4.99804C13.4389 6.32683 12.7469 7.59522 11.563 8.25961C11.1017 8.51631 10.5942 8.69751 10.0715 8.78811C10.4559 8.89381 10.8403 9.075 11.1785 9.2864C11.4399 9.4978 11.6552 9.7394 11.8551 9.99609C12.0857 10.2528 12.2856 10.5397 12.4548 10.8417L14.5152 14.7525H9.68705L7.41136 10.6001C7.11921 10.0716 6.87319 9.7243 6.64255 9.5582C6.33502 9.3468 5.96599 9.2411 5.59696 9.2411H5.22793V14.7223H0.968705V14.7374ZM5.22793 6.70433H7.02695C7.41136 6.67413 7.78039 6.61373 8.14942 6.52313C8.4262 6.47783 8.67222 6.32683 8.84135 6.10033C9.25651 5.55674 9.19501 4.78665 8.68759 4.31855C8.41082 4.09205 7.87265 3.97125 7.10384 3.97125H5.22793V6.70433ZM0 26.3039L4.04396 26.0472C4.13622 26.6965 4.30536 27.1797 4.58213 27.527C5.01266 28.0706 5.64309 28.3575 6.45803 28.3575C7.05771 28.3575 7.53437 28.2216 7.85727 27.9347C8.1648 27.6931 8.34931 27.3458 8.34931 26.9683C8.34931 26.6059 8.18017 26.2586 7.88803 26.0321C7.5805 25.7603 6.85782 25.4885 5.7046 25.2469C3.84407 24.8392 2.50633 24.2957 1.72214 23.6011C0.937952 22.9518 0.492041 22.0005 0.522793 20.9888C0.522793 20.2942 0.738061 19.5996 1.13784 19.0258C1.59913 18.3765 2.22956 17.8631 2.983 17.5762C3.79794 17.2289 4.93578 17.0477 6.36578 17.0477C8.11867 17.0477 9.4564 17.3648 10.379 18.0141C11.3016 18.6634 11.8397 19.6751 12.0089 21.0794L8.01104 21.3059C7.9034 20.7019 7.68813 20.264 7.33448 19.9771C6.9962 19.6902 6.51954 19.5543 5.91986 19.5694C5.42782 19.5694 5.05879 19.6751 4.81277 19.8865C4.56675 20.0677 4.42837 20.3395 4.44374 20.6415C4.44374 20.868 4.56675 21.0794 4.75127 21.2153C4.95116 21.3965 5.42782 21.5626 6.18126 21.7136C8.04179 22.1062 9.36415 22.4988 10.1791 22.9065C10.994 23.3142 11.5783 23.8125 11.932 24.4014C12.301 25.0053 12.4855 25.6999 12.4855 26.3945C12.4855 27.2401 12.2241 28.0706 11.7475 28.7803C11.2401 29.5202 10.5327 30.094 9.70243 30.4413C8.82598 30.8188 7.71889 31.0151 6.39653 31.0151C4.05933 31.0151 2.44483 30.5772 1.53763 29.6863C0.630427 28.7803 0.12301 27.6629 0 26.3039Z" fill="#1C1C1C"/>
<path d="M20.4504 25.2468L24.1715 26.3491C23.9716 27.2702 23.5564 28.146 22.9875 28.9161C22.4647 29.5956 21.7728 30.1241 20.9886 30.4714C20.189 30.8187 19.1742 30.9999 17.9441 30.9999C16.4526 30.9999 15.2225 30.7885 14.2845 30.3657C13.3312 29.9429 12.5163 29.1879 11.8243 28.1158C11.1324 27.0437 10.7941 25.6696 10.7941 23.9936C10.7941 21.7588 11.3938 20.0374 12.6085 18.8445C13.8233 17.6516 15.53 17.0476 17.7442 17.0476C19.4817 17.0476 20.8348 17.3949 21.8343 18.0744C22.8184 18.769 23.5564 19.826 24.0485 21.2454L20.2967 22.0608C20.2044 21.7437 20.066 21.4266 19.8815 21.1548C19.6509 20.8377 19.3587 20.5961 19.0051 20.4149C18.6514 20.2337 18.2516 20.1582 17.8518 20.1582C16.8831 20.1582 16.1451 20.5357 15.6377 21.3058C15.2533 21.8645 15.0534 22.7554 15.0534 23.9634C15.0534 25.4582 15.284 26.485 15.7453 27.0437C16.2066 27.6024 16.8524 27.8742 17.6981 27.8742C18.513 27.8742 19.1281 27.6477 19.5432 27.2098C19.9584 26.7417 20.2659 26.0924 20.4504 25.2468ZM29.138 17.2741H33.3819V22.0004H38.0255V17.2741H42.3001V30.7734H38.0255V25.3072H33.3819V30.7734H29.138V17.2741Z" fill="#1C1C1C"/>
<path d="M41.7158 24.0239C41.7158 21.8193 42.3462 20.0979 43.5917 18.8748C44.8372 17.6517 46.5901 17.0327 48.8196 17.0327C51.1107 17.0327 52.8636 17.6366 54.1091 18.8446C55.3546 20.0526 55.9696 21.7438 55.9696 23.9182C55.9696 25.5037 55.6928 26.7872 55.1547 27.7989C54.6319 28.7954 53.8169 29.6108 52.8175 30.1544C51.7873 30.7131 50.511 31 48.9888 31C47.4358 31 46.1595 30.7584 45.1447 30.2752C44.0991 29.7618 43.2381 28.9615 42.6691 27.98C42.0387 26.9231 41.7158 25.6094 41.7158 24.0239ZM45.9597 24.039C45.9597 25.398 46.2211 26.3795 46.7285 26.9835C47.2359 27.5724 47.9432 27.8743 48.835 27.8743C49.7422 27.8743 50.4495 27.5875 50.9569 26.9986C51.4644 26.4097 51.7104 25.3678 51.7104 23.8578C51.7104 22.5894 51.449 21.6532 50.9262 21.0794C50.4034 20.4905 49.6961 20.2036 48.8043 20.2036C48.0201 20.1734 47.2666 20.5056 46.7438 21.0945C46.2211 21.6834 45.9597 22.6649 45.9597 24.039ZM60.3211 24.0239C60.3211 21.8193 60.9515 20.0979 62.197 18.8748C63.4425 17.6517 65.1954 17.0327 67.4249 17.0327C69.716 17.0327 71.4843 17.6366 72.7144 18.8446C73.9445 20.0526 74.5749 21.7438 74.5749 23.9182C74.5749 25.5037 74.2981 26.7872 73.7599 27.7989C73.2372 28.7954 72.4222 29.6108 71.4228 30.1544C70.3925 30.7131 69.1163 31 67.5941 31C66.0411 31 64.7648 30.7584 63.75 30.2752C62.7044 29.7618 61.8433 28.9615 61.2744 27.98C60.644 26.9231 60.3211 25.6094 60.3211 24.0239ZM64.5649 24.039C64.5649 25.398 64.8263 26.3795 65.3337 26.9835C65.8412 27.5724 66.5485 27.8743 67.4403 27.8743C68.3475 27.8743 69.0548 27.5875 69.5622 26.9986C70.0696 26.4097 70.3157 25.3678 70.3157 23.8578C70.3157 22.5894 70.0543 21.6532 69.5315 21.0794C69.0087 20.4905 68.3014 20.2036 67.4095 20.2036C66.6254 20.1734 65.8565 20.5056 65.3491 21.0945C64.8263 21.6834 64.5649 22.6649 64.5649 24.039Z" fill="#1C1C1C"/>
<path d="M74.129 17.2742H78.3728V27.4515H85V30.7735H74.1136V17.2742H74.129Z" fill="#1C1C1C"/>
<path d="M69.4513 16.4952C73.724 13.3332 75.0415 7.97332 72.3941 4.5234C69.7467 1.07349 64.137 0.840007 59.8643 4.00192C55.5917 7.16383 54.2741 12.5238 56.9215 15.9737C59.5689 19.4236 65.1787 19.6571 69.4513 16.4952Z" fill="#1C1C1C"/>
<path d="M69.4513 16.4951C73.724 13.3333 75.0415 7.97332 72.3941 4.5234C69.7467 1.07348 64.1369 0.84001 59.8643 4.00192C55.5916 7.16383 54.2741 12.5238 56.9215 15.9736C59.5689 19.4237 65.1787 19.657 69.4513 16.4951Z" fill="#1C1C1C"/>
<path fill-rule="evenodd" clip-rule="evenodd" d="M60.0494 4.24323C55.8652 7.33965 54.6542 12.5174 57.1671 15.7921C59.68 19.0668 65.0821 19.3505 69.2662 16.2541C73.4504 13.1577 74.6615 7.97998 72.1485 4.70528C69.6356 1.43057 64.2335 1.1468 60.0494 4.24323ZM56.6759 16.1556C53.8941 12.5304 55.3181 6.98825 59.6792 3.76086C64.0404 0.533468 69.8579 0.716645 72.6397 4.34177C75.4216 7.9669 73.9975 13.5091 69.6364 16.7365C65.2753 19.9639 59.4577 19.7807 56.6759 16.1556Z" fill="#1C1C1C"/>
<path d="M60.3365 9.25612L61.8741 8.19913L63.7654 10.8416C64.0883 11.2644 64.3343 11.7174 64.5188 12.2157C64.6264 12.5932 64.5957 13.0009 64.4419 13.3633C64.242 13.8163 63.9191 14.1938 63.4886 14.4656C62.9812 14.8129 62.5506 15.0092 62.1816 15.0696C61.828 15.13 61.4589 15.0696 61.1207 14.9186C60.7516 14.7374 60.4287 14.4807 60.1827 14.1485L61.5051 12.9405C61.6127 13.1066 61.7511 13.2576 61.9048 13.3784C62.0125 13.4539 62.1355 13.4992 62.2739 13.4992C62.3815 13.4992 62.4891 13.4539 62.566 13.3935C62.7198 13.3029 62.8274 13.1217 62.812 12.9405C62.7659 12.6838 62.6583 12.4271 62.4891 12.2308L60.3365 9.25612ZM64.9493 10.9322L66.3486 9.84501C66.5024 10.0262 66.7022 10.1621 66.9175 10.2376C67.225 10.3282 67.5479 10.2678 67.8093 10.0715C67.9939 9.95071 68.1476 9.78461 68.2091 9.57321C68.3014 9.30142 68.1476 8.99942 67.8708 8.90882C67.8247 8.89372 67.7786 8.87862 67.7325 8.87862C67.5479 8.86352 67.225 8.93902 66.7484 9.13532C65.9642 9.45241 65.3491 9.57321 64.8878 9.52791C64.4419 9.48261 64.0268 9.25612 63.7807 8.87862C63.5962 8.62192 63.504 8.31992 63.4886 8.01793C63.4886 7.67063 63.5809 7.32333 63.7807 7.03644C64.0729 6.62874 64.4266 6.28144 64.8571 6.00965C65.5029 5.57175 66.0718 5.36035 66.5639 5.36035C67.0559 5.36035 67.5172 5.58685 67.9477 6.05495L66.5639 7.12704C66.2871 6.77974 65.7643 6.70424 65.4106 6.97604L65.3645 7.02134C65.2107 7.11194 65.1031 7.24784 65.0416 7.41393C64.9955 7.53473 65.0262 7.67063 65.1031 7.77633C65.1646 7.85183 65.2569 7.91223 65.3645 7.91223C65.4875 7.92733 65.7028 7.86693 66.0103 7.73103C66.7791 7.41393 67.3634 7.23274 67.7632 7.17234C68.1015 7.11194 68.4551 7.14214 68.778 7.27804C69.0702 7.39883 69.3162 7.61023 69.4853 7.86693C69.7006 8.16893 69.8236 8.53132 69.839 8.90882C69.8544 9.30142 69.7467 9.67891 69.5315 10.0111C69.2547 10.4188 68.901 10.7661 68.4859 11.0379C67.6402 11.6117 66.9483 11.8533 66.3947 11.7627C65.795 11.6721 65.303 11.3701 64.9493 10.9322Z" fill="#F1E9DC"/>
</g>
<defs>
<clipPath id="clip0_20_424">
<rect width="85" height="31" fill="white"/>
</clipPath>
</defs>
</svg>
