<svg 
 xmlns="http://www.w3.org/2000/svg"
 xmlns:xlink="http://www.w3.org/1999/xlink"
 width="183px" height="184px">
<path fill-rule="evenodd"  fill="rgb(28, 28, 28)"
 d="M180.187,173.849 L172.409,181.627 C169.285,184.751 164.220,184.751 161.096,181.627 L106.424,126.956 C95.642,133.933 82.799,138.000 69.000,138.000 C30.892,138.000 0.000,107.108 0.000,69.000 C0.000,30.892 30.892,0.000 69.000,0.000 C107.108,0.000 138.000,30.892 138.000,69.000 C138.000,83.544 133.490,97.028 125.807,108.154 L180.187,162.535 C183.312,165.659 183.312,170.724 180.187,173.849 ZM69.500,28.000 C46.028,28.000 27.000,47.028 27.000,70.500 C27.000,93.972 46.028,113.000 69.500,113.000 C92.972,113.000 112.000,93.972 112.000,70.500 C112.000,47.028 92.972,28.000 69.500,28.000 Z"/>
</svg>